<svg xmlns="http://www.w3.org/2000/svg" width="70" height="80" viewBox="0 0 70 80" fill="none"><path d="M50.0691 30.8957C43.3796 17.5059 20.8412 20.4524 17.6219 35.1619C15.6795 44.0377 23.87 50.2492 24.928 58.561H43.7044C44.2565 56.3385 45.3799 53.6952 46.1578 52.0706C47.7745 48.6953 50.0612 46.4891 50.9295 42.7235C51.7555 39.1406 51.6599 34.0806 50.0691 30.8957Z" stroke="#FFCC00" stroke-width="4.61656" stroke-miterlimit="1.5" stroke-linecap="round" stroke-linejoin="round"></path><path fill-rule="evenodd" clip-rule="evenodd" d="M24.5835 69.8886C24.5782 67.3238 24.4523 64.7592 24.4968 62.1952C24.5145 61.1798 24.341 59.938 25.2197 59.2281C26.5029 58.192 28.4115 58.0411 30.0039 58.0027C32.9885 57.9314 35.9961 57.9565 38.9837 57.9626C40.3443 57.9649 42.375 57.7287 43.6014 58.4048C44.7686 59.0472 45.0641 60.7982 45.1953 61.9808C45.447 64.247 46.117 69.3075 44.193 71.0619C42.9813 72.167 41.0911 72.3982 39.5393 72.5892C35.4228 73.0958 24.5897 72.9952 24.5835 69.8886Z" stroke="#FFCC00" stroke-width="4.61656" stroke-miterlimit="1.5" stroke-linecap="round" stroke-linejoin="round"></path><path d="M35.5549 72.8075C35.5885 74.2033 35.6049 75.6064 35.4951 77" stroke="#FFCC00" stroke-width="4.61656" stroke-miterlimit="1.5" stroke-linecap="round" stroke-linejoin="round"></path><path d="M3 51.4978C4.46453 50.7248 5.99403 50.0889 7.47424 49.3495" stroke="#FFCC00" stroke-width="4.61656" stroke-miterlimit="1.5" stroke-linecap="round" stroke-linejoin="round"></path><path d="M3 21.4572C4.6348 22.4953 6.19866 23.6426 7.8372 24.6717" stroke="#FFCC00" stroke-width="4.61656" stroke-miterlimit="1.5" stroke-linecap="round" stroke-linejoin="round"></path><path d="M35.2681 9.15257C35.2105 7.09656 35.2232 5.05527 35.289 3" stroke="#FFCC00" stroke-width="4.61656" stroke-miterlimit="1.5" stroke-linecap="round" stroke-linejoin="round"></path><path d="M60.5762 23.158C62.6285 21.7995 64.742 20.5233 66.8293 19.2193" stroke="#FFCC00" stroke-width="4.61656" stroke-miterlimit="1.5" stroke-linecap="round" stroke-linejoin="round"></path><path d="M56.9951 51.1746C58.5776 52.5928 60.1669 53.9946 61.6986 55.4681" stroke="#FFCC00" stroke-width="4.61656" stroke-miterlimit="1.5" stroke-linecap="round" stroke-linejoin="round"></path></svg>